# xmcd
#
# Track frame offsets:
# 150
# 19352
# 38554
# 52021
# 64172
# 77823
# 93941
# 109125
# 124437
# 142404
# 156206
# 172194
# 185250
# 203239
#
# Disc length: 3287 seconds
#
#
# Revision: 0
# Processed by: cddbd v1.5.1PL0 Copyright (c) Steve Scherf et al.
# Submitted via: FreeRIP 2.80 
#
DISCID=cf0cd50e
DTITLE=The Bodyshock - Nostalgie
DYEAR=2004
DGENRE=
TTITLE0=Tiger and Libanaise
TTITLE1=Instanbul Nights
TTITLE2=Belly Power
TTITLE3=Resunaction
TTITLE4=Nostalgie
TTITLE5=Balady
TTITLE6=Millenium
TTITLE7=Beyrut Electro
TTITLE8=Oriental Love Story
TTITLE9=Journey
TTITLE10=Ay
TTITLE11=Caliente
TTITLE12=Sadface
TTITLE13=Versus
EXTD=
EXTT0=
EXTT1=
EXTT2=
EXTT3=
EXTT4=
EXTT5=
EXTT6=
EXTT7=
EXTT8=
EXTT9=
EXTT10=
EXTT11=
EXTT12=
EXTT13=
PLAYORDER=
